HIERARCHY
ROOT hips
{
  OFFSET 0 10.6860622 2.3727825e-15
  CHANNELS 6 Xposition Yposition Zposition Yrotation Xrotation Zrotation
  JOINT leftUpperLeg
  {
    OFFSET 0.6642549969 -0.9402397400000004 0
    CHANNELS 3 Yrotation Xrotation Zrotation
    JOINT leftLowerLeg
    {
      OFFSET 0 -3.997221335632195 0
      CHANNELS 3 Yrotation Xrotation Zrotation
      JOINT leftFoot
      {
        OFFSET -0.13777839790000004 -4.6145792000000005 -0.22186036399999998
        CHANNELS 3 Yrotation Xrotation Zrotation
        JOINT leftToes
        {
          OFFSET -0.03777410834999995 -0.9130806927000008 0.85230013
          CHANNELS 3 Yrotation Xrotation Zrotation
          End Site
          {
            OFFSET -0.03777410834999995 -0.9130806927000008 0.85230013
          }
        }
      }
    }
  }
  JOINT rightUpperLeg
  {
    OFFSET -0.6642778626 -0.9402397400000004 0
    CHANNELS 3 Yrotation Xrotation Zrotation
    JOINT rightLowerLeg
    {
      OFFSET 0 -3.997221452859387 0
      CHANNELS 3 Yrotation Xrotation Zrotation
      JOINT rightFoot
      {
        OFFSET 0.1377926176 -4.6145792000000005 -0.22185782299999995
        CHANNELS 3 Yrotation Xrotation Zrotation
        JOINT rightToes
        {
          OFFSET 0.037780746850000047 -0.9130806927000008 0.85230167
          CHANNELS 3 Yrotation Xrotation Zrotation
          End Site
          {
            OFFSET 0.037780746850000047 -0.9130806927000008 0.85230167
          }
        }
      }
    }
  }
  JOINT spine
  {
    OFFSET 0 0.13988381660000015 0
    CHANNELS 3 Yrotation Xrotation Zrotation
    JOINT chest
    {
      OFFSET 0 0.6191039003973773 0
      CHANNELS 3 Yrotation Xrotation Zrotation
      JOINT upperChest
      {
        OFFSET 0 0.9855186130586943 0
        CHANNELS 3 Yrotation Xrotation Zrotation
        JOINT leftShoulder
        {
          OFFSET 0.1807663869 1.5087829790000005 0
          CHANNELS 3 Yrotation Xrotation Zrotation
          JOINT leftUpperArm
          {
            OFFSET 0.5985063006419806 0 0
            CHANNELS 3 Yrotation Xrotation Zrotation
            JOINT leftLowerArm
            {
              OFFSET 2.2993332369501065 0 0
              CHANNELS 3 Yrotation Xrotation Zrotation
              JOINT leftHand
              {
                OFFSET 2.395047042602395 0 0
                CHANNELS 3 Yrotation Xrotation Zrotation
                JOINT leftIndexProximal
                {
                  OFFSET 0.5766295810000004 0.04556643899499946 0.17265095988184
                  CHANNELS 3 Yrotation Xrotation Zrotation
                  JOINT leftIndexIntermediate
                  {
                    OFFSET 0.2957229000000008 -0.019352197700001517 -0.007932640616999987
                    CHANNELS 3 Yrotation Xrotation Zrotation
                    JOINT leftIndexDistal
                    {
                      OFFSET 0.19008243099999922 -0.012484908149998475 -0.002786250786000012
                      CHANNELS 3 Yrotation Xrotation Zrotation
                      End Site
                      {
                        OFFSET 0.19008243099999922 -0.012484908149998475 -0.002786250786000012
                      }
                    }
                  }
                }
                JOINT leftMiddleProximal
                {
                  OFFSET 0.5834975091000001 0.0524350405149987 0.02204081888183999
                  CHANNELS 3 Yrotation Xrotation Zrotation
                  JOINT leftMiddleIntermediate
                  {
                    OFFSET 0.33880573540000003 -0.019871473270000717 -0.00000971183179999946
                    CHANNELS 3 Yrotation Xrotation Zrotation
                    JOINT leftMiddleDistal
                    {
                      OFFSET 0.20676022730000088 -0.012221336379999448 0.0001471936708000235
                      CHANNELS 3 Yrotation Xrotation Zrotation
                      End Site
                      {
                        OFFSET 0.20676022730000088 -0.012221336379999448 0.0001471936708000235
                      }
                    }
                  }
                }
                JOINT leftLittleProximal
                {
                  OFFSET 0.5344154683999995 -0.012880921405001189 -0.24414037221816004
                  CHANNELS 3 Yrotation Xrotation Zrotation
                  JOINT leftLittleIntermediate
                  {
                    OFFSET 0.21758961730000093 -0.011650919939999227 0.011893592810000034
                    CHANNELS 3 Yrotation Xrotation Zrotation
                    JOINT leftLittleDistal
                    {
                      OFFSET 0.1475273964999999 -0.008152365682999818 0.006001092492999946
                      CHANNELS 3 Yrotation Xrotation Zrotation
                      End Site
                      {
                        OFFSET 0.1475273964999999 -0.008152365682999818 0.006001092492999946
                      }
                    }
                  }
                }
                JOINT leftRingProximal
                {
                  OFFSET 0.5799399463000003 0.026911854694997794 -0.12150566991816003
                  CHANNELS 3 Yrotation Xrotation Zrotation
                  JOINT leftRingIntermediate
                  {
                    OFFSET 0.26167887460000006 -0.013480186499999602 0.010996293000000053
                    CHANNELS 3 Yrotation Xrotation Zrotation
                    JOINT leftRingDistal
                    {
                      OFFSET 0.17667108799999987 -0.008990287899999228 0.0055541023999999065
                      CHANNELS 3 Yrotation Xrotation Zrotation
                      End Site
                      {
                        OFFSET 0.17667108799999987 -0.008990287899999228 0.0055541023999999065
                      }
                    }
                  }
                }
                JOINT leftThumbProximal
                {
                  OFFSET 0.11018806699999972 -0.09448718900500053 0.17047963138184
                  CHANNELS 3 Yrotation Xrotation Zrotation
                  JOINT leftThumbIntermediate
                  {
                    OFFSET 0.31062601459999983 -0.08126270900000132 0.15443142000000007
                    CHANNELS 3 Yrotation Xrotation Zrotation
                    JOINT leftThumbDistal
                    {
                      OFFSET 0.21627175790000086 -0.08833193599999878 0.018771167799999988
                      CHANNELS 3 Yrotation Xrotation Zrotation
                      End Site
                      {
                        OFFSET 0.21627175790000086 -0.08833193599999878 0.018771167799999988
                      }
                    }
                  }
                }
              }
            }
          }
        }
        JOINT neck
        {
          OFFSET 0 1.5463305265074576 0
          CHANNELS 3 Yrotation Xrotation Zrotation
          JOINT head
          {
            OFFSET 0 0.8456443600000344 0
            CHANNELS 3 Yrotation Xrotation Zrotation
            JOINT leftEye
            {
              OFFSET 0.30408573140000006 0.5104519199999995 0.1276382305
              CHANNELS 3 Yrotation Xrotation Zrotation
              End Site
              {
                OFFSET 0.30408573140000006 0.5104519199999995 0.1276382305
              }
            }
            JOINT rightEye
            {
              OFFSET -0.30409491089999996 0.5104519199999995 0.1276379445
              CHANNELS 3 Yrotation Xrotation Zrotation
              End Site
              {
                OFFSET -0.30409491089999996 0.5104519199999995 0.1276379445
              }
            }
            JOINT jaw
            {
              OFFSET -3.155239131000001e-7 -0.11984121820000082 0.60178107
              CHANNELS 3 Yrotation Xrotation Zrotation
              End Site
              {
                OFFSET -3.155239131000001e-7 -0.11984121820000082 0.60178107
              }
            }
          }
        }
        JOINT rightShoulder
        {
          OFFSET -0.1807303465 1.5087829790000005 0
          CHANNELS 3 Yrotation Xrotation Zrotation
          JOINT rightUpperArm
          {
            OFFSET -0.5985063796536958 0 0
            CHANNELS 3 Yrotation Xrotation Zrotation
            JOINT rightLowerArm
            {
              OFFSET -2.2993322059002854 0 0
              CHANNELS 3 Yrotation Xrotation Zrotation
              JOINT rightHand
              {
                OFFSET -2.395045314457259 0 0
                CHANNELS 3 Yrotation Xrotation Zrotation
                JOINT rightIndexProximal
                {
                  OFFSET -0.5764487688300002 0.0441371204405987 0.17361932004999997
                  CHANNELS 3 Yrotation Xrotation Zrotation
                  JOINT rightIndexIntermediate
                  {
                    OFFSET -0.29573011380000047 -0.01934826376999843 -0.007698921482999974
                    CHANNELS 3 Yrotation Xrotation Zrotation
                    JOINT rightIndexDistal
                    {
                      OFFSET -0.19008373999999884 -0.012503266380000655 -0.0026365778999999897
                      CHANNELS 3 Yrotation Xrotation Zrotation
                      End Site
                      {
                        OFFSET -0.19008373999999884 -0.012503266380000655 -0.0026365778999999897
                      }
                    }
                  }
                }
                JOINT rightMiddleProximal
                {
                  OFFSET -0.5834852037300005 0.05211639405060153 0.02307162440000001
                  CHANNELS 3 Yrotation Xrotation Zrotation
                  JOINT rightMiddleIntermediate
                  {
                    OFFSET -0.33880114510000003 -0.019952774050000954 0.0002455003561999819
                    CHANNELS 3 Yrotation Xrotation Zrotation
                    JOINT rightMiddleDistal
                    {
                      OFFSET -0.20675694929999955 -0.012273788999999091 0.00030209124000002766
                      CHANNELS 3 Yrotation Xrotation Zrotation
                      End Site
                      {
                        OFFSET -0.20675694929999955 -0.012273788999999091 0.00030209124000002766
                      }
                    }
                  }
                }
                JOINT rightLittleProximal
                {
                  OFFSET -0.5346811737299992 -0.011214256288399227 -0.24363941305000003
                  CHANNELS 3 Yrotation Xrotation Zrotation
                  JOINT rightLittleIntermediate
                  {
                    OFFSET -0.21757715980000092 -0.011771559690000988 0.01201554387
                    CHANNELS 3 Yrotation Xrotation Zrotation
                    JOINT rightLittleDistal
                    {
                      OFFSET -0.1475201849000004 -0.00822055339600003 0.006082065407000015
                      CHANNELS 3 Yrotation Xrotation Zrotation
                      End Site
                      {
                        OFFSET -0.1475201849000004 -0.00822055339600003 0.006082065407000015
                      }
                    }
                  }
                }
                JOINT rightRingProximal
                {
                  OFFSET -0.5800810755299999 0.027657985680600072 -0.12066365025000003
                  CHANNELS 3 Yrotation Xrotation Zrotation
                  JOINT rightRingIntermediate
                  {
                    OFFSET -0.26166445029999974 -0.013623118409999302 0.011164098990000045
                    CHANNELS 3 Yrotation Xrotation Zrotation
                    JOINT rightRingDistal
                    {
                      OFFSET -0.17666387530000027 -0.009072900100000503 0.005668185599999959
                      CHANNELS 3 Yrotation Xrotation Zrotation
                      End Site
                      {
                        OFFSET -0.17666387530000027 -0.009072900100000503 0.005668185599999959
                      }
                    }
                  }
                }
                JOINT rightThumbProximal
                {
                  OFFSET -0.10997596379000074 -0.09577489355940072 0.16989765924999997
                  CHANNELS 3 Yrotation Xrotation Zrotation
                  JOINT rightThumbIntermediate
                  {
                    OFFSET -0.31036620999999986 -0.08229339117999834 0.15440884469999996
                    CHANNELS 3 Yrotation Xrotation Zrotation
                    JOINT rightThumbDistal
                    {
                      OFFSET -0.21631306399999906 -0.08825326400000111 0.018656797720000014
                      CHANNELS 3 Yrotation Xrotation Zrotation
                      End Site
                      {
                        OFFSET -0.21631306399999906 -0.08825326400000111 0.018656797720000014
                      }
                    }
                  }
                }
              }
            }
          }
        }
      }
    }
  }
}
MOTION
Frames: 4
Frame Time: 0.03333333333333333
-0.01908911019563675 -4.790590627124024 0.2646293044090271 -1.1375579821033475 -9.298350299460093 2.6556437515677733 7.872373779898752 -82.74647440459522 4.967824508917874 -79.77695378185845 81.4526790427386 -84.71528803084314 0.062243220626772816 3.7532126296703177 3.3211661262026198 6.898848819421454e-21 -0.00005633337548003604 -3.390445913483389e-27 3.3843969156284173 -84.27905571145146 -11.676024917996862 -103.98467037597031 80.45471841086457 -102.40159663013951 -1.950639874267066 0.32994867902221825 -4.419577357293462 -0.000003195240647275057 -0.1296122081544772 8.95096383694206e-7 -1.8447821407347036 19.01253638614478 -4.461328479798844 -0.2419395251094026 5.141028950973378 -0.783596493581216 0 0 0 -14.178811703907042 2.0112503841521687 -8.03989196229932 -19.118118881187325 -17.050805440798136 -47.69556209041697 -55.726749602801284 0.3233433518616075 0.6116383798102827 -2.4487351744270733 24.037842573081484 14.818001736606696 5.64865781008228 0.9504461629136356 -55.11391294689133 2.7925095543279133 0.827365192072241 -33.00398772125108 1.1605724028293256 0.13312116036305924 -13.088377066488004 3.574422053768884 -0.7951586885589981 -44.57523376132919 2.6841572107481926 0.7589234966822824 -31.572445331497644 1.831098287864352 0.3382456322959299 -20.931426897390494 6.932812420223565 1.8152306970389254 -27.820352238502814 1.385342600050695 0.19076896339471622 -15.682169459227174 2.1445624032351573 0.47019907537283895 -24.732335895403967 6.793288441005507 2.1618417529270277 -38.23082194106639 1.8955383449317655 0.3633910717551839 -21.704513412827428 1.657644268136542 0.2754640845321814 -18.86981678556438 -2.6439689643406044 6.698123289051029 1.3291020387809764 23.579326932119745 17.301289497543035 -2.663490661456736 -1.007067531012424 3.278676915350001 3.8831809517804188 0.4821846365357966 1.3718104177681427 0.011772623193709166 3.1734353198743714 -13.922106239557463 2.612247321434645 0 0 0 0 0 0 0 0 0 17.79772117292413 1.357003598859462 12.576147669804605 33.42910640950964 -21.62381737392003 38.40236493354115 36.380624564639795 0.14425401447567218 -0.4389905455848524 8.64164042612318 23.112642423998327 2.601394026091337 -4.81766595406679 0.9011881973244381 49.54459975003367 -2.298224439431511 0.743474895659838 35.84883420862644 -1.2248735663852675 0.1961036650256967 18.19134500731443 -3.1449041111226173 -0.7976194485514306 46.332582128815076 -1.7668201712805651 0.4203202980076366 26.76151961761091 -0.37362013420838164 0.01783722273354793 5.46480327536951 -7.141711044909973 1.9728011436357744 25.769174131090786 -1.549686489330939 0.31901822669623064 23.26353004089453 -0.8568651320668247 0.09471967248117116 12.61497324890285 -3.0211350501566536 -0.3304797350499206 35.85484375996939 -1.3912659020601168 0.2549548610272568 20.768215254234754 -0.29111037938465084 0.010813679455392857 4.2552941861356 3.189684873916373 4.342589755891594 -16.663203180412236 -15.689025656613074 29.527537261807016 10.502499048638677 -9.934726765116812 -2.226547184101557 17.847400254292577
-0.019005561247467995 -4.790497643878174 0.2642512321472168 -1.136038751762098 -9.331299893113261 2.6573157374444785 7.850816323807016 -82.71325384677814 4.988604513135552 -79.76980321573197 81.44861294211441 -84.7078832649377 0.06456691670471301 3.7543193602369493 3.326436187045962 6.898848819421454e-21 -0.00005633337548003604 -3.390445913483389e-27 3.3665025377904123 -84.24513636148589 -11.66118556249889 -103.98980491673369 80.45397704393373 -102.40681155457389 -1.9499130833016336 0.32752517595671965 -4.417098904132974 -0.000003195240647275057 -0.1296122081544772 8.95096383694206e-7 -1.8517048151454913 19.050708520501196 -4.463410616034264 -0.24203173556547244 5.200808866236911 -0.7838329953136502 0 0 0 -14.211911714640873 1.999475183428615 -8.084234787431644 -19.058227429617563 -17.046861877338483 -47.6413181255953 -55.826449602387676 0.32439924660718994 0.6123459014918959 -2.4188692053653154 24.049403407849997 14.8073583788119 5.64865781008228 0.9504461629136356 -55.11391294689133 2.7925095543279133 0.827365192072241 -33.00398772125108 1.1605724028293256 0.13312116036305924 -13.088377066488004 3.574422053768884 -0.7951586885589981 -44.57523376132919 2.6841572107481926 0.7589234966822824 -31.572445331497644 1.831098287864352 0.3382456322959299 -20.931426897390494 6.932812420223565 1.8152306970389254 -27.820352238502814 1.385342600050695 0.19076896339471622 -15.682169459227174 2.1445624032351573 0.47019907537283895 -24.732335895403967 6.793288441005507 2.1618417529270277 -38.23082194106639 1.8955383449317655 0.3633910717551839 -21.704513412827428 1.657644268136542 0.2754640845321814 -18.86981678556438 -2.6439689643406044 6.698123289051029 1.3291020387809764 23.579326932119745 17.301289497543035 -2.663490661456736 -1.007067531012424 3.278676915350001 3.8831809517804188 0.48217813353388206 1.3796875763810195 0.011262321576999117 3.168042489868851 -13.95846176430776 2.619660602437012 0 0 0 0 0 0 0 0 0 17.834136883299337 1.339721850024882 12.617456486779622 33.35115450133538 -21.61130919665501 38.36121576260506 36.51774203783984 0.14530186488915198 -0.4404192430576534 8.585655324876932 23.142523445444567 2.6184850297153894 -4.81766595406679 0.9011881973244381 49.54459975003367 -2.298224439431511 0.743474895659838 35.84883420862644 -1.2248735663852675 0.1961036650256967 18.19134500731443 -3.1449041111226173 -0.7976194485514306 46.332582128815076 -1.7668201712805651 0.4203202980076366 26.76151961761091 -0.37362013420838164 0.01783722273354793 5.46480327536951 -7.141711044909973 1.9728011436357744 25.769174131090786 -1.549686489330939 0.31901822669623064 23.26353004089453 -0.8568651320668247 0.09471967248117116 12.61497324890285 -3.0211350501566536 -0.3304797350499206 35.85484375996939 -1.3912659020601168 0.2549548610272568 20.768215254234754 -0.29111037938465084 0.010813679455392857 4.2552941861356 3.189684873916373 4.342589755891594 -16.663203180412236 -15.689025656613074 29.527537261807016 10.502499048638677 -9.934726765116812 -2.226547184101557 17.847400254292577
-0.01884591393172741 -4.790319306781006 0.26348912715911865 -1.1341544349383568 -9.397455934625478 2.660399877943973 7.8196086412780135 -82.64632666196977 5.018653689439814 -79.76074478468202 81.44126666646359 -84.69839442353343 0.06861026208895774 3.7556960374801855 3.3372216350074733 6.898848819421454e-21 -0.00005633337548003604 -3.390445913483389e-27 3.3212989868121947 -84.17809048589658 -11.622780074882924 -103.99935835341968 80.45097097374955 -102.41665036288829 -1.9477843742910956 0.32299284552398916 -4.419615747969601 -0.000003195240647275057 -0.1296122081544772 8.95096383694206e-7 -1.8648334960150832 19.12676288301335 -4.46747629576343 -0.2422169320904647 5.321504364388505 -0.7843118249379363 0 0 0 -14.272204267059918 1.9792005673925466 -8.163177456203 -18.938952286067206 -17.055745728795632 -47.549142783432806 -56.015061710216976 0.3264404388747817 0.6137315446862266 -2.3675495389430834 24.082711837927175 14.780164488593712 5.64865781008228 0.9504461629136356 -55.11391294689133 2.7925095543279133 0.827365192072241 -33.00398772125108 1.1605724028293256 0.13312116036305924 -13.088377066488004 3.574422053768884 -0.7951586885589981 -44.57523376132919 2.6841572107481926 0.7589234966822824 -31.572445331497644 1.831098287864352 0.3382456322959299 -20.931426897390494 6.932812420223565 1.8152306970389254 -27.820352238502814 1.385342600050695 0.19076896339471622 -15.682169459227174 2.1445624032351573 0.47019907537283895 -24.732335895403967 6.793288441005507 2.1618417529270277 -38.23082194106639 1.8955383449317655 0.3633910717551839 -21.704513412827428 1.657644268136542 0.2754640845321814 -18.86981678556438 -2.6439689643406044 6.698123289051029 1.3291020387809764 23.579326932119745 17.301289497543035 -2.663490661456736 -1.007067531012424 3.278676915350001 3.8831809517804188 0.4821667244284671 1.3934682098565805 0.010293313677002914 3.158483991514865 -14.013641141939168 2.6345820948939083 0 0 0 0 0 0 0 0 0 17.880139215081496 1.3156095045842946 12.681899277186567 33.24690685199672 -21.602713895818777 38.27796512709839 36.7472474390717 0.14706631393405378 -0.442803287409027 8.490145481035773 23.188727460115224 2.6419791086286533 -4.81766595406679 0.9011881973244381 49.54459975003367 -2.298224439431511 0.743474895659838 35.84883420862644 -1.2248735663852675 0.1961036650256967 18.19134500731443 -3.1449041111226173 -0.7976194485514306 46.332582128815076 -1.7668201712805651 0.4203202980076366 26.76151961761091 -0.37362013420838164 0.01783722273354793 5.46480327536951 -7.141711044909973 1.9728011436357744 25.769174131090786 -1.549686489330939 0.31901822669623064 23.26353004089453 -0.8568651320668247 0.09471967248117116 12.61497324890285 -3.0211350501566536 -0.3304797350499206 35.85484375996939 -1.3912659020601168 0.2549548610272568 20.768215254234754 -0.29111037938465084 0.010813679455392857 4.2552941861356 3.189684873916373 4.342589755891594 -16.663203180412236 -15.689025656613074 29.527537261807016 10.502499048638677 -9.934726765116812 -2.226547184101557 17.847400254292577
-0.01868467591702938 -4.790148599078369 0.26271528005599976 -1.1327568321525934 -9.463901598059326 2.6630991567677174 7.7906269224601274 -82.57912721783543 5.046674664741667 -79.75467804509009 81.43589866156088 -84.69202052349924 0.07252877120236709 3.756317639196791 3.3472688587566917 6.898848819421454e-21 -0.00005633337548003604 -3.390445913483389e-27 3.2733190109086068 -84.11093991435781 -11.581811870393325 -104.0073593719706 80.44806874083902 -102.42492704064665 -1.9452741100409316 0.3188135846553101 -4.422202755911638 -0.000003195240647275057 -0.1296122081544772 8.95096383694206e-7 -1.8770027689171591 19.202593707459236 -4.471346014423464 -0.24240259317352608 5.44357261805421 -0.7847971279986471 0 0 0 -14.314328272327607 1.965369992118472 -8.22812515486681 -18.849651922064716 -17.078477024758968 -47.46276367398581 -56.181395521850945 0.3282051644381991 0.614931693842285 -2.322564185180921 24.110511954886874 14.759526416181519 5.64865781008228 0.9504461629136356 -55.11391294689133 2.7925095543279133 0.827365192072241 -33.00398772125108 1.1605724028293256 0.13312116036305924 -13.088377066488004 3.574422053768884 -0.7951586885589981 -44.57523376132919 2.6841572107481926 0.7589234966822824 -31.572445331497644 1.831098287864352 0.3382456322959299 -20.931426897390494 6.932812420223565 1.8152306970389254 -27.820352238502814 1.385342600050695 0.19076896339471622 -15.682169459227174 2.1445624032351573 0.47019907537283895 -24.732335895403967 6.793288441005507 2.1618417529270277 -38.23082194106639 1.8955383449317655 0.3633910717551839 -21.704513412827428 1.657644268136542 0.2754640845321814 -18.86981678556438 -2.6439689643406044 6.698123289051029 1.3291020387809764 23.579326932119745 17.301289497543035 -2.663490661456736 -1.007067531012424 3.278676915350001 3.8831809517804188 0.4821562758553726 1.405187506987805 0.009396811700281766 3.149802254199803 -14.049535001909657 2.651189615646419 0 0 0 0 0 0 0 0 0 17.905627399931927 1.2950039867163663 12.745065925270557 33.18185426823351 -21.594629636522253 38.18354879488476 36.95256373262696 0.1486575665465194 -0.4449182403732978 8.402901190945649 23.223714720924576 2.660245791989483 -4.81766595406679 0.9011881973244381 49.54459975003367 -2.298224439431511 0.743474895659838 35.84883420862644 -1.2248735663852675 0.1961036650256967 18.19134500731443 -3.1449041111226173 -0.7976194485514306 46.332582128815076 -1.7668201712805651 0.4203202980076366 26.76151961761091 -0.37362013420838164 0.01783722273354793 5.46480327536951 -7.141711044909973 1.9728011436357744 25.769174131090786 -1.549686489330939 0.31901822669623064 23.26353004089453 -0.8568651320668247 0.09471967248117116 12.61497324890285 -3.0211350501566536 -0.3304797350499206 35.85484375996939 -1.3912659020601168 0.2549548610272568 20.768215254234754 -0.29111037938465084 0.010813679455392857 4.2552941861356 3.189684873916373 4.342589755891594 -16.663203180412236 -15.689025656613074 29.527537261807016 10.502499048638677 -9.934726765116812 -2.226547184101557 17.847400254292577
